# xmcd
#
# Track frame offsets: 
#        150
#        5910
#        23300
#        43185
#        57672
#        63235
#        81287
#        97912
#        117375
#        126235
#        147547
#        172000
#        189467
#        207680
#        224975
#        244127
#
# Disc length: 3539 seconds
#
# Revision: 3
# Processed by: cddbd v1.5.2PL0 Copyright (c) Steve Scherf et al.
# Submitted via: ExactAudioCopy v0.99pb5
#
DISCID=fc0dd110
DTITLE=112 - Part III
DYEAR=2001
DGENRE=R&B
TTITLE0=Q, Mike,Slim, Daron(Interlude) 
TTITLE1=Dance With Me
TTITLE2=It's Over Now
TTITLE3=Peaches and Cream
TTITLE4=I Surrender (Interlude)
TTITLE5=Missing You
TTITLE6=All I Want Is You
TTITLE7=Don't Hate Me (Feat. Twista)
TTITLE8=Q, Mike  Slim, Daron (Interlude)
TTITLE9=Player
TTITLE10=Sweet Love
TTITLE11=Smile
TTITLE12=Caught Up
TTITLE13=Do What You Gotta Do
TTITLE14=I Think
TTITLE15=Still In Love
EXTD=YEAR: 2001
EXTT0=
EXTT1=
EXTT2=
EXTT3=
EXTT4=
EXTT5=
EXTT6=
EXTT7=
EXTT8=
EXTT9=
EXTT10=
EXTT11=
EXTT12=
EXTT13=
EXTT14=
EXTT15=
PLAYORDER=
